<?xml version="1.0" encoding="UTF-8"?>
<svg id="Layer_2" data-name="Layer 2" xmlns="http://www.w3.org/2000/svg" viewBox="0 0 128 128">
  <defs>
    <style>
      .cls-1 {
        fill: #03c75a;
        stroke: #03c75a;
        stroke-miterlimit: 10;
      }
    </style>
  </defs>
  <g id="Layer_1-2" data-name="Layer 1">
    <g>
      <rect width="128" height="128" rx="25.81" ry="25.81"/>
      <path class="cls-1" d="M54.86,46.19c-5.81,0-11.2,1.82-15.62,4.92v-22.85h-12.83v70.98h12.83v-3.52c4.42,3.1,9.81,4.92,15.62,4.92,15.04,0,27.22-12.19,27.22-27.22s-12.19-27.23-27.22-27.23h0ZM53.64,88.74c-8.2,0-14.84-6.87-14.84-15.35s6.65-15.35,14.84-15.35,14.84,6.87,14.84,15.35-6.65,15.35-14.84,15.35h0ZM97.72,22.45h5.13v82.7h-5.13V22.45Z"/>
    </g>
  </g>
</svg>