<svg width="44" height="14" viewBox="0 0 44 14" fill="none" xmlns="http://www.w3.org/2000/svg">
<path d="M32.8609 2.72547V6.57185H38.6538V8.47168H30.416V0.825645H38.4981V2.72547H32.8609ZM33.5149 9.56175V12.1156H42.5936V13.9999H31.0701V9.56175H33.5149ZM42.4379 5.17034V9.96663H39.993V0.669922H42.4379V3.27051H43.7927V5.17034H42.4379Z" fill="#333333"/>
<path d="M19.9598 3.58164C21.7817 3.58164 22.9964 4.0021 23.5881 4.82743L26.1264 4.23568V0.669612H28.5713V8.54923H26.1264V6.18223L23.9307 6.69612C23.6504 8.0042 22.3268 8.64266 19.9598 8.64266C18.6205 8.64266 17.6239 8.44022 16.9699 8.0042C16.2847 7.58374 15.9577 6.96085 15.9577 6.11994C15.9577 5.31018 16.2847 4.68728 16.9699 4.23568C17.6239 3.79966 18.6205 3.58164 19.9598 3.58164ZM28.5713 9.24999V13.9996H16.7363V9.24999H28.5713ZM21.19 1.13678H24.3667V3.03661H15.5684V1.13678H18.7451V0H21.19V1.13678ZM19.1811 11.1342V12.1153H26.1264V11.1342H19.1811ZM19.9598 5.23232C19.5237 5.23232 19.15 5.2946 18.8541 5.41918C18.5427 5.55933 18.4025 5.79292 18.4025 6.11994C18.4025 6.46253 18.5583 6.68054 18.8697 6.80512C19.1656 6.94527 19.5237 7.00756 19.9598 7.00756C20.1622 7.00756 20.3646 6.99199 20.5671 6.96085C20.754 6.9297 20.9097 6.88299 21.0654 6.80512C21.2056 6.74283 21.3301 6.66497 21.4236 6.54039C21.5014 6.43139 21.5481 6.29124 21.5481 6.11994C21.5481 5.96422 21.5014 5.82406 21.4236 5.69949C21.3301 5.59048 21.2056 5.49705 21.0654 5.41918C20.9097 5.35689 20.7384 5.31018 20.5515 5.27903C20.3491 5.24789 20.1466 5.23232 19.9598 5.23232Z" fill="#333333"/>
<path d="M5.26346 1.76073H7.70832V3.66056H5.26346V6.49473C5.26346 6.93076 5.24789 7.32007 5.21674 7.6938C5.17003 8.08311 5.10774 8.45685 5.04545 8.81501L8.19107 11.7738L6.83627 13.4244L4.26683 10.9017C3.92424 11.4623 3.50378 11.9606 2.9899 12.3811C2.46043 12.8015 1.82197 13.1597 1.07449 13.44L0 11.6336C0.498316 11.4156 0.934342 11.182 1.29251 10.9017C1.6351 10.637 1.93097 10.2944 2.16456 9.88951C2.38257 9.5002 2.55387 9.03303 2.66288 8.47242C2.75631 7.92739 2.8186 7.25778 2.8186 6.47916V3.66056H0.467171V1.76073H2.8186V0.3125H5.26346V1.76073ZM8.82953 13.6892V7.50694L6.63383 8.26998V6.32343L8.82953 5.56039V0.670665H11.072V13.6892H8.82953ZM14.4667 13.6892H12.2087V0.670665H14.4667V13.6892Z" fill="#333333"/>
</svg>
