<svg width="194" height="68" viewBox="0 0 194 68" fill="none" xmlns="http://www.w3.org/2000/svg">
<g clip-path="url(#clip0_3015_4027)">
<path fill-rule="evenodd" clip-rule="evenodd" d="M52.0338 27.9271L40.9617 2.83313C40.8548 2.59107 40.6175 2.4375 40.3516 2.4375H38.1246C37.8613 2.4375 37.6214 2.59367 37.5144 2.83313L26.4424 27.9245C26.3459 28.1431 26.5076 28.3904 26.7475 28.3904H33.7125C33.9759 28.3904 34.2158 28.2342 34.3227 27.9947L39.2407 15.6183L44.1431 27.9947C44.25 28.2368 44.4873 28.3904 44.7532 28.3904H51.7339C51.9738 28.3904 52.1355 28.1431 52.039 27.9245L52.0338 27.9271Z" fill="#323333"/>
<path fill-rule="evenodd" clip-rule="evenodd" d="M11.1062 20.822H9.49985C9.31471 20.822 9.16607 20.6736 9.16607 20.4888V10.3378C9.16607 10.153 9.31471 10.0046 9.49985 10.0046H11.1062C15.1897 10.0046 17.4375 11.9463 17.4375 15.4107C17.4375 18.875 15.1897 20.8194 11.1062 20.8194V20.822ZM10.788 2.43555H2.45401C2.08633 2.43555 1.78906 2.73227 1.78906 3.09927V27.7247C1.78906 28.0917 2.08633 28.3884 2.45401 28.3884H10.7854C19.2655 28.3884 25.19 22.9745 25.19 15.4107C25.19 7.84684 19.2681 2.43555 10.788 2.43555Z" fill="#323333"/>
<path fill-rule="evenodd" clip-rule="evenodd" d="M125.165 16.1885H123.897C123.522 16.1885 123.217 15.8839 123.217 15.5091V9.84795C123.217 9.47314 123.522 9.16861 123.897 9.16861H125.165C128.476 9.16861 129.952 9.97549 129.952 12.6928C129.952 15.4102 128.521 16.1858 125.165 16.1858V16.1885ZM124.52 2.15137H116.661C116.286 2.15137 115.98 2.4559 115.98 2.83071V27.9975C115.98 28.3723 116.286 28.6769 116.661 28.6769H122.536C122.912 28.6769 123.217 28.3723 123.217 27.9975V23.8876C123.217 23.5128 123.522 23.2083 123.897 23.2083H124.52C132.367 23.2083 137.241 19.3821 137.241 12.7007C137.241 6.01918 132.367 2.15137 124.52 2.15137Z" fill="#323333"/>
<path fill-rule="evenodd" clip-rule="evenodd" d="M180.135 16.1885H178.528C178.341 16.1885 178.189 16.0375 178.189 15.8501V9.50958C178.189 9.32218 178.341 9.17121 178.528 9.17121H180.135C183.446 9.17121 184.922 9.97809 184.922 12.6954C184.922 15.4128 183.491 16.1885 180.135 16.1885ZM179.491 2.15137H171.634C171.258 2.15137 170.953 2.4559 170.953 2.83071V27.9975C170.953 28.3723 171.258 28.6769 171.634 28.6769H177.509C177.884 28.6769 178.189 28.3723 178.189 27.9975V23.5493C178.189 23.3619 178.341 23.2109 178.528 23.2109H179.491C187.337 23.2109 192.211 19.3847 192.211 12.7033C192.211 6.02178 187.34 2.15137 179.491 2.15137Z" fill="#323333"/>
<path fill-rule="evenodd" clip-rule="evenodd" d="M153.93 1.67188C146.081 1.67188 140.164 7.58031 140.164 15.4148C140.164 23.2494 146.081 29.1552 153.93 29.1552C161.779 29.1552 167.695 23.2468 167.695 15.4148C167.695 7.58291 161.779 1.67188 153.93 1.67188ZM159.646 15.4148C159.646 15.6179 159.635 15.8183 159.617 16.0135C159.338 19.1343 156.918 21.5758 153.974 21.5758C151.03 21.5758 148.608 19.1343 148.331 16.0135C148.313 15.8183 148.302 15.6179 148.302 15.4148C148.302 15.3081 148.313 15.2066 148.318 15.1025C148.323 15.0088 148.323 14.9125 148.331 14.8188C148.608 11.6954 151.027 9.25393 153.974 9.25393C156.921 9.25393 159.341 11.6954 159.617 14.8188C159.627 14.9385 159.63 15.0609 159.633 15.1832C159.635 15.2613 159.643 15.3368 159.643 15.4148H159.646Z" fill="#323333"/>
<path fill-rule="evenodd" clip-rule="evenodd" d="M92.4705 9.01779H99.1174C99.545 9.01779 99.8918 8.67161 99.8918 8.24475V3.21347C99.8918 2.78661 99.545 2.44043 99.1174 2.44043H81.0673C80.6996 2.44043 80.4023 2.73715 80.4023 3.10415V27.727C80.4023 28.094 80.6996 28.3907 81.0673 28.3907H97.9387C97.9648 28.3907 97.9883 28.3777 98.0143 28.3751H99.1069C99.5346 28.3751 99.8814 28.0289 99.8814 27.602V22.9351C99.8814 22.5083 99.5346 22.1621 99.1069 22.1621H92.4601V22.1777H88.2096C87.9958 22.1777 87.8211 22.0059 87.8211 21.7899V19.0803C87.8211 18.8669 87.9932 18.6925 88.2096 18.6925H99.1069C99.5346 18.6925 99.8814 18.3463 99.8814 17.9195V13.2526C99.8814 12.8257 99.5346 12.4796 99.1069 12.4796H88.2096C87.9958 12.4796 87.8211 12.3078 87.8211 12.0917V9.39781C87.8211 9.18437 87.9932 9.00998 88.2096 9.00998H92.4705V9.01779Z" fill="#323333"/>
<path fill-rule="evenodd" clip-rule="evenodd" d="M74.3048 2.45377H73.5955C73.5668 2.44856 73.5408 2.43555 73.5095 2.43555H54.0382C54.007 2.43555 53.9809 2.44856 53.9522 2.45377H53.4698C53.0421 2.45377 52.6953 2.79994 52.6953 3.22681V9.33826C52.6953 9.76513 53.0421 10.1113 53.4698 10.1113H54.0278C54.0278 10.1113 54.033 10.1113 54.0382 10.1113H59.1492C59.363 10.1113 59.5378 10.2831 59.5378 10.4991V27.618C59.5378 28.0448 59.8846 28.391 60.3122 28.391H60.7373C60.7373 28.391 60.7373 28.391 60.7399 28.391H66.8131C66.8131 28.391 66.8131 28.391 66.8157 28.391H67.2303C67.6579 28.391 68.0048 28.0448 68.0048 27.618V10.4991C68.0048 10.2857 68.1769 10.1113 68.3933 10.1113H73.5121C73.5121 10.1113 73.5173 10.1113 73.5225 10.1113H74.3074C74.7351 10.1113 75.0819 9.76513 75.0819 9.33826V3.22681C75.0819 2.79994 74.7351 2.45377 74.3074 2.45377H74.3048Z" fill="#323333"/>
</g>
<path d="M116.714 46.3142V53.2302H127.13V56.6462H112.318V42.8982H126.85V46.3142H116.714ZM117.89 58.6062V63.1982H134.214V66.5862H113.494V58.6062H117.89ZM133.934 50.7102V59.3342H129.538V42.6182H133.934V47.2942H136.37V50.7102H133.934Z" fill="#333333"/>
<path d="M93.519 47.8541C96.795 47.8541 98.979 48.6101 100.043 50.0941L104.607 49.0301V42.6181H109.003V56.7861H104.607V52.5301L100.659 53.4541C100.155 55.8061 97.775 56.9541 93.519 56.9541C91.111 56.9541 89.319 56.5901 88.143 55.8061C86.911 55.0501 86.323 53.9301 86.323 52.4181C86.323 50.9621 86.911 49.8421 88.143 49.0301C89.319 48.2461 91.111 47.8541 93.519 47.8541ZM109.003 58.0461V66.5861H87.723V58.0461H109.003ZM95.731 43.4581H101.443V46.8741H85.623V43.4581H91.335V41.4141H95.731V43.4581ZM92.119 61.4341V63.1981H104.607V61.4341H92.119ZM93.519 50.8221C92.735 50.8221 92.063 50.9341 91.531 51.1581C90.971 51.4101 90.719 51.8301 90.719 52.4181C90.719 53.0341 90.999 53.4261 91.559 53.6501C92.091 53.9021 92.735 54.0141 93.519 54.0141C93.883 54.0141 94.247 53.9861 94.611 53.9301C94.947 53.8741 95.227 53.7901 95.507 53.6501C95.759 53.5381 95.983 53.3981 96.151 53.1741C96.291 52.9781 96.375 52.7261 96.375 52.4181C96.375 52.1381 96.291 51.8861 96.151 51.6621C95.983 51.4661 95.759 51.2981 95.507 51.1581C95.227 51.0461 94.919 50.9621 94.583 50.9061C94.219 50.8501 93.855 50.8221 93.519 50.8221Z" fill="#333333"/>
<path d="M67.0929 44.5781H71.4889V47.9941H67.0929V53.0901C67.0929 53.8741 67.0649 54.5741 67.0089 55.2461C66.9249 55.9461 66.8129 56.6181 66.7009 57.2621L72.3569 62.5821L69.9209 65.5501L65.3009 61.0141C64.6849 62.0221 63.9289 62.9181 63.0049 63.6741C62.0529 64.4301 60.9049 65.0741 59.5609 65.5781L57.6289 62.3301C58.5249 61.9381 59.3089 61.5181 59.9529 61.0141C60.5689 60.5381 61.1009 59.9221 61.5209 59.1941C61.9129 58.4941 62.2209 57.6541 62.4169 56.6461C62.5849 55.6661 62.6969 54.4621 62.6969 53.0621V47.9941H58.4689V44.5781H62.6969V41.9741H67.0929V44.5781ZM73.5049 66.0261V54.9101L69.5569 56.2821V52.7821L73.5049 51.4101V42.6181H77.5369V66.0261H73.5049ZM83.6409 66.0261H79.5809V42.6181H83.6409V66.0261Z" fill="#333333"/>
<defs>
<clipPath id="clip0_3015_4027">
<rect width="194" height="28" fill="white" transform="translate(0 1.41406)"/>
</clipPath>
</defs>
</svg>
