<?xml version="1.0" standalone="no"?>
<!DOCTYPE svg PUBLIC "-//W3C//DTD SVG 20010904//EN"
 "http://www.w3.org/TR/2001/REC-SVG-20010904/DTD/svg10.dtd">
<svg version="1.0" xmlns="http://www.w3.org/2000/svg"
 width="199.000000pt" height="28.000000pt" viewBox="0 0 199.000000 28.000000"
 preserveAspectRatio="xMidYMid meet">

<g transform="translate(0.000000,28.000000) scale(0.100000,-0.100000)"
fill="#000000" stroke="none">
<path d="M1491 262 c-120 -65 -74 -252 62 -252 78 0 137 58 137 135 0 103
-107 166 -199 117z m107 -74 c21 -21 15 -75 -10 -92 -30 -21 -44 -20 -68 4
-24 24 -26 57 -3 82 18 20 63 24 81 6z"/>
<path d="M50 145 l0 -125 70 0 c110 0 160 38 160 120 0 89 -52 130 -164 130
l-66 0 0 -125z m138 39 c40 -28 16 -94 -35 -94 -21 0 -23 4 -23 55 0 61 14 70
58 39z"/>
<path d="M402 253 c-13 -23 -102 -224 -102 -229 0 -2 17 -4 39 -4 38 0 39 1
61 62 l23 62 24 -62 c25 -61 26 -62 64 -62 l38 0 -14 33 c-86 205 -111 242
-133 200z"/>
<path d="M560 235 c0 -32 2 -35 30 -35 l30 0 0 -90 0 -90 45 0 45 0 0 90 0 90
35 0 c33 0 35 2 35 35 l0 35 -110 0 -110 0 0 -35z"/>
<path d="M830 145 l0 -125 95 0 95 0 0 30 0 30 -60 0 c-47 0 -60 3 -60 15 0
12 13 15 60 15 60 0 60 0 60 30 0 28 -1 29 -57 32 -44 2 -58 7 -58 18 0 11 14
16 58 18 56 3 57 4 57 32 l0 30 -95 0 -95 0 0 -125z"/>
<path d="M1180 140 l0 -130 34 0 c30 0 35 3 38 27 3 24 9 28 48 35 59 10 90
44 90 99 0 31 -7 47 -29 70 -27 27 -35 29 -105 29 l-76 0 0 -130z m124 57 c29
-21 16 -51 -22 -55 -29 -3 -32 -1 -32 26 0 44 19 54 54 29z"/>
<path d="M1728 139 l3 -130 32 3 c27 2 33 8 35 31 3 23 8 27 37 27 21 0 45 9
64 26 27 22 31 32 31 74 0 42 -4 52 -31 74 -27 23 -40 26 -102 26 l-72 0 3
-131z m116 58 c26 -19 17 -51 -17 -55 -25 -3 -27 -1 -27 32 0 39 13 45 44 23z"/>
</g>
</svg>
