<svg width="148" height="36" viewBox="0 0 148 36" fill="none" xmlns="http://www.w3.org/2000/svg">
<path fill-rule="evenodd" clip-rule="evenodd" d="M28.2298 24.2565L22.6938 11.7095C22.6403 11.5885 22.5217 11.5117 22.3887 11.5117H21.2752C21.1435 11.5117 21.0236 11.5898 20.9701 11.7095L15.4341 24.2552C15.3859 24.3645 15.4667 24.4881 15.5866 24.4881H19.0691C19.2008 24.4881 19.3208 24.4101 19.3742 24.2903L21.8332 18.1021L24.2844 24.2903C24.3379 24.4114 24.4565 24.4881 24.5895 24.4881H28.0798C28.1998 24.4881 28.2806 24.3645 28.2324 24.2552L28.2298 24.2565Z" fill="#323333"/>
<path fill-rule="evenodd" clip-rule="evenodd" d="M7.76597 20.704H6.96281C6.87024 20.704 6.79593 20.6298 6.79593 20.5374V15.4618C6.79593 15.3694 6.87024 15.2953 6.96281 15.2953H7.76597C9.80775 15.2953 10.9316 16.2661 10.9316 17.9983C10.9316 19.7305 9.80775 20.7027 7.76597 20.7027V20.704ZM7.6069 11.5107H3.4399C3.25606 11.5107 3.10742 11.6591 3.10742 11.8426V24.1553C3.10742 24.3388 3.25606 24.4872 3.4399 24.4872H7.6056C11.8456 24.4872 14.8079 21.7802 14.8079 17.9983C14.8079 14.2164 11.8469 11.5107 7.6069 11.5107Z" fill="#323333"/>
<path fill-rule="evenodd" clip-rule="evenodd" d="M64.7952 18.3872H64.1615C63.9738 18.3872 63.8212 18.2349 63.8212 18.0475V15.2169C63.8212 15.0295 63.9738 14.8773 64.1615 14.8773H64.7952C66.451 14.8773 67.189 15.2807 67.189 16.6394C67.189 17.9981 66.4732 18.3859 64.7952 18.3859V18.3872ZM64.4731 11.3687H60.5434C60.3557 11.3687 60.2031 11.5209 60.2031 11.7083V24.2917C60.2031 24.4791 60.3557 24.6314 60.5434 24.6314H63.4809C63.6687 24.6314 63.8212 24.4791 63.8212 24.2917V22.2368C63.8212 22.0494 63.9738 21.8971 64.1615 21.8971H64.4731C68.3963 21.8971 70.8332 19.984 70.8332 16.6433C70.8332 13.3026 68.3963 11.3687 64.4731 11.3687Z" fill="#323333"/>
<path fill-rule="evenodd" clip-rule="evenodd" d="M92.2802 18.3872H91.4771C91.3832 18.3872 91.3076 18.3117 91.3076 18.218V15.0478C91.3076 14.9541 91.3832 14.8786 91.4771 14.8786H92.2802C93.9361 14.8786 94.674 15.282 94.674 16.6407C94.674 17.9994 93.9582 18.3872 92.2802 18.3872ZM91.9582 11.3687H88.0298C87.842 11.3687 87.6895 11.5209 87.6895 11.7083V24.2917C87.6895 24.4791 87.842 24.6314 88.0298 24.6314H90.9673C91.155 24.6314 91.3076 24.4791 91.3076 24.2917V22.0676C91.3076 21.9739 91.3832 21.8984 91.4771 21.8984H91.9582C95.8814 21.8984 98.3182 19.9853 98.3182 16.6446C98.3182 13.3039 95.8827 11.3687 91.9582 11.3687Z" fill="#323333"/>
<path fill-rule="evenodd" clip-rule="evenodd" d="M79.1778 11.1289C75.2533 11.1289 72.2949 14.0831 72.2949 18.0004C72.2949 21.9177 75.2533 24.8706 79.1778 24.8706C83.1023 24.8706 86.0606 21.9164 86.0606 18.0004C86.0606 14.0844 83.1023 11.1289 79.1778 11.1289ZM82.0358 18.0004C82.0358 18.1019 82.0305 18.2021 82.0214 18.2997C81.8819 19.8601 80.672 21.0808 79.1999 21.0808C77.7279 21.0808 76.5167 19.8601 76.3785 18.2997C76.3694 18.2021 76.3641 18.1019 76.3641 18.0004C76.3641 17.947 76.3694 17.8963 76.372 17.8442C76.3746 17.7974 76.3746 17.7492 76.3785 17.7024C76.5167 16.1407 77.7266 14.9199 79.1999 14.9199C80.6733 14.9199 81.8832 16.1407 82.0214 17.7024C82.0266 17.7622 82.0279 17.8234 82.0292 17.8846C82.0305 17.9236 82.0344 17.9613 82.0344 18.0004H82.0358Z" fill="#323333"/>
<path fill-rule="evenodd" clip-rule="evenodd" d="M48.4481 14.8019H51.7716C51.9854 14.8019 52.1588 14.6288 52.1588 14.4153V11.8997C52.1588 11.6863 51.9854 11.5132 51.7716 11.5132H42.7465C42.5627 11.5132 42.4141 11.6615 42.4141 11.845V24.1565C42.4141 24.34 42.5627 24.4883 42.7465 24.4883H51.1822C51.1953 24.4883 51.207 24.4818 51.2201 24.4805H51.7664C51.9802 24.4805 52.1536 24.3074 52.1536 24.094V21.7605C52.1536 21.5471 51.9802 21.374 51.7664 21.374H48.4429V21.3818H46.3177C46.2108 21.3818 46.1234 21.2959 46.1234 21.1879V19.8331C46.1234 19.7264 46.2095 19.6392 46.3177 19.6392H51.7664C51.9802 19.6392 52.1536 19.4661 52.1536 19.2527V16.9193C52.1536 16.7058 51.9802 16.5327 51.7664 16.5327H46.3177C46.2108 16.5327 46.1234 16.4469 46.1234 16.3388V14.9919C46.1234 14.8852 46.2095 14.798 46.3177 14.798H48.4481V14.8019Z" fill="#323333"/>
<path fill-rule="evenodd" clip-rule="evenodd" d="M39.3653 11.5199H39.0107C38.9963 11.5172 38.9833 11.5107 38.9676 11.5107H29.232C29.2164 11.5107 29.2033 11.5172 29.189 11.5199H28.9478C28.734 11.5199 28.5605 11.6929 28.5605 11.9064V14.9621C28.5605 15.1755 28.734 15.3486 28.9478 15.3486H29.2268C29.2268 15.3486 29.2294 15.3486 29.232 15.3486H31.7875C31.8944 15.3486 31.9818 15.4345 31.9818 15.5425V24.102C31.9818 24.3154 32.1552 24.4885 32.369 24.4885H32.5815C32.5815 24.4885 32.5815 24.4885 32.5828 24.4885H35.6194C35.6194 24.4885 35.6194 24.4885 35.6207 24.4885H35.828C36.0419 24.4885 36.2153 24.3154 36.2153 24.102V15.5425C36.2153 15.4358 36.3013 15.3486 36.4095 15.3486H38.9689C38.9689 15.3486 38.9715 15.3486 38.9742 15.3486H39.3666C39.5804 15.3486 39.7538 15.1755 39.7538 14.9621V11.9064C39.7538 11.6929 39.5804 11.5199 39.3666 11.5199H39.3653Z" fill="#323333"/>
<path d="M134.855 13.726V17.5723H140.648V19.4722H132.41V11.8261H140.492V13.726H134.855ZM135.509 20.5622V23.1161H144.588V25.0004H133.064V20.5622H135.509ZM144.432 16.1708V20.9671H141.987V11.6704H144.432V14.271H145.787V16.1708H144.432Z" fill="#333333"/>
<path d="M121.954 14.5816C123.776 14.5816 124.991 15.0021 125.582 15.8274L128.121 15.2357V11.6696H130.565V19.5492H128.121V17.1822L125.925 17.6961C125.645 19.0042 124.321 19.6427 121.954 19.6427C120.615 19.6427 119.618 19.4402 118.964 19.0042C118.279 18.5837 117.952 17.9608 117.952 17.1199C117.952 16.3102 118.279 15.6873 118.964 15.2357C119.618 14.7997 120.615 14.5816 121.954 14.5816ZM130.565 20.25V24.9996H118.73V20.25H130.565ZM123.184 12.1368H126.361V14.0366H117.562V12.1368H120.739V11H123.184V12.1368ZM121.175 22.1342V23.1153H128.121V22.1342H121.175ZM121.954 16.2323C121.518 16.2323 121.144 16.2946 120.848 16.4192C120.537 16.5593 120.397 16.7929 120.397 17.1199C120.397 17.4625 120.552 17.6805 120.864 17.8051C121.16 17.9453 121.518 18.0076 121.954 18.0076C122.156 18.0076 122.359 17.992 122.561 17.9608C122.748 17.9297 122.904 17.883 123.06 17.8051C123.2 17.7428 123.324 17.665 123.418 17.5404C123.496 17.4314 123.542 17.2912 123.542 17.1199C123.542 16.9642 123.496 16.8241 123.418 16.6995C123.324 16.5905 123.2 16.497 123.06 16.4192C122.904 16.3569 122.733 16.3102 122.546 16.279C122.343 16.2479 122.141 16.2323 121.954 16.2323Z" fill="#333333"/>
<path d="M107.258 12.7602H109.702V14.6601H107.258V17.4942C107.258 17.9303 107.242 18.3196 107.211 18.6933C107.164 19.0826 107.102 19.4564 107.04 19.8145L110.185 22.7733L108.83 24.4239L106.261 21.9012C105.918 22.4618 105.498 22.9601 104.984 23.3806C104.455 23.8011 103.816 24.1592 103.069 24.4395L101.994 22.6331C102.492 22.4151 102.928 22.1815 103.287 21.9012C103.629 21.6365 103.925 21.2939 104.159 20.889C104.377 20.4997 104.548 20.0325 104.657 19.4719C104.75 18.9269 104.813 18.2573 104.813 17.4787V14.6601H102.461V12.7602H104.813V11.312H107.258V12.7602ZM110.824 24.6887V18.5064L108.628 19.2695V17.3229L110.824 16.5599V11.6702H113.066V24.6887H110.824ZM116.461 24.6887H114.203V11.6702H116.461V24.6887Z" fill="#333333"/>
</svg>
