<svg width="205" height="55" viewBox="0 0 205 55" fill="none" xmlns="http://www.w3.org/2000/svg">
<g filter="url(#filter0_d_2635_4332)">
<path d="M181.5 4C191.165 4 199 11.835 199 21.5C199 31.165 191.165 39 181.5 39H107.023L102.07 47L97.1172 39H23.5C13.835 39 6 31.165 6 21.5C6 11.835 13.835 4 23.5 4H181.5Z" fill="white"/>
</g>
<path d="M33.5 23L42.5 14L39.5 20.5H45L34.5 30L39 23H33.5Z" fill="url(#paint0_linear_2635_4332)"/>
<path d="M54.7838 26.6367C52.6646 26.6367 51.1607 25.4883 51.1197 23.8203H52.9107C52.9654 24.6133 53.7584 25.1328 54.7838 25.1328C55.8775 25.1328 56.6568 24.5312 56.6568 23.6562C56.6568 22.7676 55.8912 22.125 54.6061 22.125H53.7174V20.7578H54.6061C55.6588 20.7578 56.3971 20.1699 56.3834 19.3086C56.3971 18.4746 55.7682 17.9141 54.7975 17.9141C53.8678 17.9141 53.0611 18.4336 53.0338 19.2676H51.3248C51.3658 17.5996 52.8697 16.4648 54.8111 16.4648C56.8209 16.4648 58.1197 17.6953 58.1061 19.2129C58.1197 20.3203 57.3814 21.127 56.3014 21.3457V21.4277C57.6959 21.6191 58.4889 22.5078 58.4752 23.752C58.4889 25.4199 56.9303 26.6367 54.7838 26.6367ZM70.6366 25.0098V26.2539H59.3436V25.0098H64.2245V22.4531H65.7284V25.0098H70.6366ZM69.6249 17.1484V18.3789H65.7694C65.872 19.917 67.4784 21.332 70.1444 21.6875L69.5839 22.877C67.4442 22.5762 65.7968 21.626 64.9764 20.2656C64.1561 21.626 62.5223 22.5762 60.3827 22.877L59.8085 21.6875C62.4882 21.332 64.0878 19.917 64.2108 18.3789H60.3417V17.1484H64.2245V15.5488H65.7284V17.1484H69.6249ZM77.4386 16.4238V22.2617H71.5871V16.4238H77.4386ZM73.0773 17.6406V21.0586H75.9484V17.6406H73.0773ZM80.9113 15.3574V18.9805H82.6339V20.252H80.9113V24.3809H79.3937V15.3574H80.9113ZM81.4035 26.2402V27.4707H72.9953V23.5059H74.5129V26.2402H81.4035ZM93.6469 15.3574V27.7168H92.184V15.3574H93.6469ZM91.1039 15.5762V27.1152H89.6547V21.2363H88.4789C88.3354 23.6426 87.3032 25.1328 85.7719 25.1191C84.1586 25.1328 83.1059 23.4238 83.1059 20.7031C83.1059 17.9824 84.1586 16.3008 85.7719 16.3008C87.269 16.3008 88.2875 17.6953 88.4653 20.0059H89.6547V15.5762H91.1039ZM85.7719 17.7363C84.9926 17.7227 84.5004 18.7754 84.5141 20.7031C84.5004 22.6309 84.9926 23.6836 85.7719 23.6699C86.5922 23.6836 87.0844 22.6309 87.0844 20.7031C87.0844 18.7754 86.5922 17.7227 85.7719 17.7363ZM107.976 15.3574V20.0059H109.356V21.291H107.976V27.7168H106.472V15.3574H107.976ZM99.2529 16.4922V19.459H100.292V16.4922H101.55V24.8047H97.9951V16.4922H99.2529ZM99.2529 23.5605H100.292V20.6621H99.2529V23.5605ZM103.341 16.4922V19.459H104.38V16.4922H105.638V24.8047H102.11V16.4922H103.341ZM103.341 23.5605H104.38V20.6621H103.341V23.5605ZM120.944 22.0977V23.3145H109.651V22.0977H120.944ZM119.823 26.2402V27.4707H111.1V24.0938H112.631V26.2402H119.823ZM119.549 15.6855V18.9805H112.59V20.0332H119.795V21.1816H111.086V17.8867H118.032V16.875H111.045V15.6855H119.549ZM134.821 15.3574V27.7168H133.304V15.3574H134.821ZM124.581 24.2852C125.565 24.2783 126.68 24.2783 127.848 24.2441V23.1094C126.454 22.8906 125.552 22.0361 125.552 20.8672C125.552 19.4727 126.782 18.543 128.587 18.543C130.405 18.543 131.663 19.4727 131.663 20.8672C131.663 22.0293 130.754 22.877 129.366 23.0957V24.1895C130.453 24.1416 131.547 24.0527 132.579 23.916L132.688 25.0508C129.968 25.5156 127.028 25.543 124.8 25.543L124.581 24.2852ZM132.36 16.7793V17.9824H124.841V16.7793H127.848V15.3984H129.366V16.7793H132.36ZM128.587 19.7051C127.657 19.7188 126.987 20.1426 127.001 20.8672C126.987 21.5781 127.657 22.002 128.587 21.9883C129.557 22.002 130.2 21.5781 130.2 20.8672C130.2 20.1426 129.557 19.7188 128.587 19.7051ZM146.709 15.3711V24.7227H145.178V23.6426H142.758V22.5762H145.178V15.3711H146.709ZM146.996 26.2402V27.4707H137.932V23.8203H139.449V26.2402H146.996ZM136.291 20.9219C138.574 20.9082 141.637 20.8809 144.262 20.5527L144.344 21.6465C143.325 21.8174 142.273 21.9336 141.227 22.002V24.3809H139.709V22.084C138.554 22.1318 137.453 22.1387 136.483 22.1387L136.291 20.9219ZM140.324 15.8223C142.129 15.8223 143.387 16.7109 143.401 18.0098C143.387 19.3359 142.129 20.1836 140.324 20.1836C138.492 20.1836 137.234 19.3359 137.234 18.0098C137.234 16.7109 138.492 15.8223 140.324 15.8223ZM140.324 16.9434C139.34 16.9434 138.67 17.3398 138.67 18.0098C138.67 18.6797 139.34 19.0762 140.324 19.0762C141.268 19.0762 141.938 18.6797 141.951 18.0098C141.938 17.3398 141.268 16.9434 140.324 16.9434ZM157.845 15.3574V20.1836H159.677V21.4551H157.845V27.6895H156.328V15.3574H157.845ZM154.578 16.6426C154.578 20.2793 153.074 23.4648 148.958 25.4883L148.097 24.3125C151.105 22.8154 152.732 20.71 153.046 17.9004H148.767V16.6426H154.578ZM170.28 15.3574V21.9883H168.749V15.3574H170.28ZM163.608 22.5625V23.834H168.762V22.5625H170.28V27.5664H162.104V22.5625H163.608ZM163.608 26.3359H168.762V25.0234H163.608V26.3359ZM163.54 15.9043C165.44 15.8906 166.862 17.0801 166.862 18.8027C166.862 20.4844 165.44 21.6738 163.54 21.6738C161.626 21.6738 160.204 20.4844 160.204 18.8027C160.204 17.0801 161.626 15.8906 163.54 15.9043ZM163.54 17.1758C162.46 17.1758 161.68 17.8047 161.694 18.8027C161.68 19.7871 162.46 20.416 163.54 20.4297C164.606 20.416 165.372 19.7871 165.372 18.8027C165.372 17.8047 164.606 17.1758 163.54 17.1758Z" fill="#333333"/>
<defs>
<filter id="filter0_d_2635_4332" x="0" y="0" width="205" height="55" filterUnits="userSpaceOnUse" color-interpolation-filters="sRGB">
<feFlood flood-opacity="0" result="BackgroundImageFix"/>
<feColorMatrix in="SourceAlpha" type="matrix" values="0 0 0 0 0 0 0 0 0 0 0 0 0 0 0 0 0 0 127 0" result="hardAlpha"/>
<feOffset dy="2"/>
<feGaussianBlur stdDeviation="3"/>
<feComposite in2="hardAlpha" operator="out"/>
<feColorMatrix type="matrix" values="0 0 0 0 0 0 0 0 0 0 0 0 0 0 0 0 0 0 0.1 0"/>
<feBlend mode="normal" in2="BackgroundImageFix" result="effect1_dropShadow_2635_4332"/>
<feBlend mode="normal" in="SourceGraphic" in2="effect1_dropShadow_2635_4332" result="shape"/>
</filter>
<linearGradient id="paint0_linear_2635_4332" x1="39.25" y1="14" x2="39.25" y2="30" gradientUnits="userSpaceOnUse">
<stop stop-color="#FF9F00"/>
<stop offset="1" stop-color="#FFFE60"/>
</linearGradient>
</defs>
</svg>
