<svg width="21" height="16" viewBox="0 0 21 16" fill="none" xmlns="http://www.w3.org/2000/svg">
<rect width="21" height="16" rx="4" fill="#F6F6F6"/>
<path d="M5.68 12C5.648 12 5.632 11.98 5.632 11.94V5.1H4.072C4.032 5.1 4.012 5.08 4.012 5.04L4.024 3.696C4.024 3.664 4.04 3.648 4.072 3.648H8.632C8.672 3.648 8.692 3.664 8.692 3.696V5.04C8.692 5.08 8.676 5.1 8.644 5.1H7.072L7.084 11.94C7.084 11.98 7.068 12 7.036 12H5.68ZM9.10469 12C9.06469 12 9.04469 11.98 9.04469 11.94L9.05669 3.696C9.05669 3.664 9.07269 3.648 9.10469 3.648H10.4487C10.4807 3.648 10.4967 3.664 10.4967 3.696L10.5087 11.94C10.5087 11.98 10.4927 12 10.4607 12H9.10469ZM11.3842 12C11.3442 12 11.3242 11.98 11.3242 11.94L11.3482 3.696C11.3482 3.664 11.3642 3.648 11.3962 3.648H13.7002C14.4362 3.648 15.0162 3.872 15.4402 4.32C15.8722 4.768 16.0882 5.376 16.0882 6.144C16.0882 6.712 15.9762 7.204 15.7522 7.62C15.5282 8.036 15.2362 8.356 14.8762 8.58C14.5162 8.804 14.1242 8.916 13.7002 8.916H12.7882V11.94C12.7882 11.98 12.7682 12 12.7282 12H11.3842ZM12.7882 7.464H13.7002C13.9562 7.464 14.1762 7.344 14.3602 7.104C14.5522 6.856 14.6482 6.536 14.6482 6.144C14.6482 5.832 14.5642 5.576 14.3962 5.376C14.2282 5.176 13.9962 5.076 13.7002 5.076L12.7882 5.088V7.464Z" fill="#9B9B9B"/>
</svg>
