<svg width="18" height="18" viewBox="0 0 18 18" fill="none" xmlns="http://www.w3.org/2000/svg">
<rect x="2.25" y="3" width="13.5" height="12.75" rx="1.41667" fill="#F6F6F6"/>
<path d="M2.25 4.41667C2.25 3.63426 2.88426 3 3.66667 3H14.3333C15.1157 3 15.75 3.63426 15.75 4.41667V7.5H2.25V4.41667Z" fill="#FA5252"/>
<path d="M5.25 2.25V4.5" stroke="#D8D8D8" stroke-width="1.125" stroke-linecap="round" stroke-linejoin="round"/>
<path d="M12.3359 2.25V4.5" stroke="#D8D8D8" stroke-width="1.125" stroke-linecap="round" stroke-linejoin="round"/>
<path d="M10.6625 14.256C9.48339 14.256 8.875 13.5535 8.875 11.628C8.875 9.70247 9.46458 9 10.6625 9C11.7664 9 12.4501 9.60212 12.4501 11.628C12.4501 13.6351 11.7978 14.256 10.6625 14.256ZM10.6625 13.3591C11.2208 13.3591 11.4779 13.0079 11.4779 11.628C11.4779 10.1854 11.1769 9.89691 10.6625 9.89691C10.0918 9.89691 9.84717 10.2858 9.84717 11.628C9.84717 12.989 10.1106 13.3591 10.6625 13.3591Z" fill="#4A4A4A"/>
<path d="M7.08705 14.1618C7.08078 13.6287 7.08078 11.515 7.08078 10.1414C6.88007 10.2857 6.63546 10.4299 6.34695 10.593C6.18387 10.4111 5.96435 10.0348 5.88281 9.79644C6.34067 9.51419 6.90516 9.1755 7.08705 9.07515C7.25013 9.05633 7.87106 9.05633 8.0655 9.07515C8.08431 9.85916 8.09058 13.1206 8.0655 14.1618C7.85224 14.1994 7.31285 14.1994 7.08705 14.1618Z" fill="#4A4A4A"/>
</svg>
