<svg width="18" height="18" viewBox="0 0 18 18" fill="none" xmlns="http://www.w3.org/2000/svg">
<circle cx="9.42188" cy="9.42188" r="4.64062" fill="white"/>
<path fill-rule="evenodd" clip-rule="evenodd" d="M9 2.25C5.27797 2.25 2.25 5.27797 2.25 9C2.25 12.722 5.27797 15.75 9 15.75C12.722 15.75 15.75 12.722 15.75 9C15.75 5.27797 12.722 2.25 9 2.25ZM9.0031 11.2203C9.44224 11.2203 9.79721 11.5752 9.79721 12.0144C9.79721 12.4535 9.44224 12.8085 9.0031 12.8085C8.56395 12.8085 8.20501 12.4535 8.20501 12.0144C8.20501 11.5752 8.5568 11.2203 8.99516 11.2203H9.0031ZM8.99531 5.38994C9.32408 5.38994 9.5909 5.65676 9.5909 5.98553V9.49474C9.5909 9.8235 9.32408 10.0903 8.99531 10.0903C8.66655 10.0903 8.39973 9.8235 8.39973 9.49474V5.98553C8.39973 5.65676 8.66655 5.38994 8.99531 5.38994Z" fill="#FF922B"/>
</svg>
