<svg width="128" height="60" viewBox="0 0 128 60" fill="none" xmlns="http://www.w3.org/2000/svg">
<path d="M115.808 49.1849H105.476V41.8769H94.5564C89.0124 41.8769 85.3164 38.1809 85.3164 32.6369V10.8809H95.6484V30.7049C95.6484 32.2169 96.6564 33.2249 98.1684 33.2249H105.476V10.8809H115.808V33.2249H119.378V41.8769H115.808V49.1849Z" fill="#D8D8D8"/>
<path d="M63.0502 10C73.7602 10 80.8582 16.132 80.8582 25.33V34.78C80.8582 43.978 73.7602 50.11 63.0502 50.11C52.3402 50.11 45.2422 43.978 45.2422 34.78V25.33C45.2422 16.132 52.3402 10 63.0502 10ZM63.0502 41.416C67.5442 41.416 70.5262 38.476 70.5262 34.066V26.044C70.5262 21.634 67.5442 18.694 63.0502 18.694C58.5562 18.694 55.5742 21.634 55.5742 26.044V34.066C55.5742 38.476 58.5562 41.416 63.0502 41.416Z" fill="#D8D8D8"/>
<path d="M38.492 49.1849H28.16V41.8769H17.24C11.696 41.8769 8 38.1809 8 32.6369V10.8809H18.332V30.7049C18.332 32.2169 19.34 33.2249 20.852 33.2249H28.16V10.8809H38.492V33.2249H42.062V41.8769H38.492V49.1849Z" fill="#D8D8D8"/>
</svg>
