<svg width="20" height="20" viewBox="0 0 20 20" fill="none" xmlns="http://www.w3.org/2000/svg">
<path d="M2.58594 5.39748C1.89558 4.20175 2.30527 2.67278 3.501 1.98242C4.69673 1.29207 6.22571 1.70175 6.91606 2.89749L7.33273 3.61917L3.0026 6.11917L2.58594 5.39748Z" fill="#2E90FA"/>
<path d="M17.4141 5.39748C18.1044 4.20175 17.6947 2.67278 16.499 1.98242C15.3033 1.29207 13.7743 1.70175 13.0839 2.89749L12.6673 3.61917L16.9974 6.11917L17.4141 5.39748Z" fill="#2E90FA"/>
<path d="M10 2.75L10 1.75" stroke="#2E90FA" stroke-width="1.25" stroke-miterlimit="10" stroke-linecap="round"/>
<path d="M10 18.25C14.1421 18.25 17.5 14.8921 17.5 10.75C17.5 6.60786 14.1421 3.25 10 3.25C5.85786 3.25 2.5 6.60786 2.5 10.75C2.5 14.8921 5.85786 18.25 10 18.25Z" fill="#D8F0FF" stroke="#84CAFF" stroke-width="1.25" stroke-miterlimit="10"/>
<path d="M10.0996 10.75L13 7.75" stroke="#2E90FA" stroke-width="1.25" stroke-miterlimit="10" stroke-linecap="round"/>
<path d="M8 9L10.1016 11" stroke="#2E90FA" stroke-width="1.25" stroke-miterlimit="10" stroke-linecap="round"/>
</svg>
