<svg width="32" height="32" viewBox="0 0 32 32" fill="none" xmlns="http://www.w3.org/2000/svg">
<g clip-path="url(#clip0_2316_17296)">
<path d="M7.75351 16.5913L7.90257 15.1045H5.72938C4.95268 15.1045 4.29367 15.6592 4.17598 16.4141L3.82294 18.7715L3.52481 20.7282L2.68535 26.2286C2.54413 27.1608 3.2816 27.9928 4.23875 27.9928H6.59238L7.57306 18.3786L7.75351 16.5836V16.5913Z" fill="#B1E174"/>
<path d="M28.5419 21.1288L28.2516 19.2183L27.9613 17.3L27.8279 16.4141C27.7181 15.6592 27.0591 15.1045 26.2824 15.1045H9.49314L9.46961 16.4603L9.43822 18.2476L9.26562 28.0005H21.3711C22.3283 25.5969 24.3838 22.1842 28.534 21.1365L28.5419 21.1288Z" fill="#B1E174"/>
<path d="M29.3166 26.2286L28.9164 23.5786L28.8929 23.4014C26.3824 24.3489 24.7427 26.2055 23.6992 27.9928H27.771C28.7281 27.9928 29.4656 27.1608 29.3244 26.2286H29.3166Z" fill="#B1E174"/>
<path d="M28.887 23.4014L28.6124 21.591L28.5418 21.1211C24.3916 22.1765 22.3282 25.5815 21.3789 27.9851H23.6933C24.7368 26.1978 26.3686 24.3412 28.887 23.3937V23.4014Z" fill="white"/>
<path d="M9.46912 16.4603L9.49266 15.1045H7.90003L7.75097 16.5913L7.57052 18.3863L6.58984 28.0005H9.27299L9.43774 18.2476L9.46912 16.4603Z" fill="white"/>
<path opacity="0.4" d="M16.0051 25.4578C18.2105 25.4578 19.9984 24.7887 19.9984 23.9633C19.9984 23.1379 18.2105 22.4688 16.0051 22.4688C13.7996 22.4688 12.0117 23.1379 12.0117 23.9633C12.0117 24.7887 13.7996 25.4578 16.0051 25.4578Z" fill="#838383"/>
<path d="M16.4297 5.33984C20.4028 5.51786 23.2199 9.20669 22.8555 13.1621C22.4287 17.7487 19.2999 21.5532 17.46 23.4287C16.7133 24.1929 15.4868 24.1931 14.7402 23.4287C12.7492 21.411 9.33605 17.1265 9.33594 12.1133C9.33594 8.26439 12.5452 5.16207 16.4297 5.33984ZM16.2432 9.56348C14.795 9.56356 13.6211 10.7384 13.6211 12.1865C13.6213 13.6345 14.7952 14.8085 16.2432 14.8086C17.6912 14.8086 18.865 13.6345 18.8652 12.1865C18.8652 10.7383 17.6914 9.56348 16.2432 9.56348Z" fill="#0FD3D8"/>
</g>
<defs>
<clipPath id="clip0_2316_17296">
<rect width="26.6667" height="24" fill="white" transform="translate(2.66797 4)"/>
</clipPath>
</defs>
</svg>
