<svg width="24" height="24" viewBox="0 0 24 24" fill="none" xmlns="http://www.w3.org/2000/svg">
<path d="M16.589 5.34546L15.926 6.4585C15.854 6.5795 15.723 6.65344 15.582 6.65344H8.41699C8.27599 6.65344 8.145 6.5795 8.073 6.4585L7.409 5.34351C7.013 4.67751 7.492 3.8335 8.267 3.8335H15.729C16.506 3.8345 16.986 4.67946 16.589 5.34546ZM20 15.4407C20 17.4407 19 21.4407 12 21.4407C5 21.4407 4 17.4407 4 15.4407C4 12.1197 6.07099 9.48472 7.70499 7.87372C7.78099 7.79872 7.87999 7.76068 7.98599 7.76068H16.014C16.12 7.76068 16.22 7.79872 16.295 7.87372C17.929 9.48472 20 12.1197 20 15.4407ZM14.5 16.0538C14.5 15.0248 13.81 14.1287 12.818 13.8737L11.553 13.5548C11.393 13.5128 11.257 13.4228 11.153 13.2878C11.054 13.1608 11 12.9967 11 12.8277C11 12.4147 11.325 12.0798 11.725 12.0798H12.276C12.645 12.0798 12.954 12.3658 12.996 12.7458C13.041 13.1578 13.406 13.4518 13.824 13.4088C14.236 13.3638 14.532 12.9918 14.487 12.5808C14.379 11.6038 13.665 10.8377 12.75 10.6357V10.4407C12.75 10.0267 12.414 9.69074 12 9.69074C11.586 9.69074 11.25 10.0267 11.25 10.4407V10.6337C10.251 10.8547 9.5 11.7527 9.5 12.8277C9.5 13.3287 9.66699 13.8187 9.96399 14.2027C10.265 14.5977 10.696 14.8828 11.182 15.0078L12.447 15.3267C12.773 15.4107 13 15.7098 13 16.0538C13 16.2538 12.923 16.4428 12.782 16.5858C12.645 16.7258 12.465 16.8017 12.275 16.8017H11.724C11.355 16.8017 11.046 16.5157 11.004 16.1357C10.958 15.7237 10.593 15.4277 10.176 15.4727C9.76399 15.5177 9.468 15.8897 9.513 16.3007C9.621 17.2777 10.335 18.0438 11.25 18.2458V18.4407C11.25 18.8547 11.586 19.1907 12 19.1907C12.414 19.1907 12.75 18.8547 12.75 18.4407V18.2477C13.164 18.1567 13.545 17.9497 13.851 17.6387C14.27 17.2137 14.5 16.6508 14.5 16.0538Z" fill="#FCC419"/>
<path d="M6.81445 7.09549C6.81445 6.60184 7.21463 6.20166 7.70828 6.20166H16.2929C16.7866 6.20166 17.1868 6.60184 17.1868 7.09549C17.1868 7.58914 16.7866 7.98932 16.2929 7.98932H7.70828C7.21463 7.98932 6.81445 7.58914 6.81445 7.09549Z" fill="#FF922B"/>
<path d="M9.23611 3.19145C9.14873 2.87319 9.38823 2.55908 9.71827 2.55908H14.2805C14.6105 2.55908 14.85 2.87319 14.7627 3.19145L14.0372 5.834C13.9776 6.05113 13.7802 6.20163 13.555 6.20163H10.4437C10.2186 6.20163 10.0212 6.05113 9.96157 5.834L9.23611 3.19145Z" fill="#FFDC72"/>
</svg>
