<svg width="32" height="32" viewBox="0 0 32 32" fill="none" xmlns="http://www.w3.org/2000/svg">
<path d="M5.94922 24.6669V13.8291C5.94922 12.7245 6.84465 11.8291 7.94922 11.8291H24.0508C25.1554 11.8291 26.0508 12.7245 26.0508 13.8291V24.6669C26.0508 25.7715 25.1554 26.6669 24.0508 26.6669H7.94922C6.84465 26.6669 5.94922 25.7715 5.94922 24.6669Z" fill="#CDE9FF"/>
<path d="M5.69386 6.35527C5.81665 5.75949 6.34121 5.33203 6.94951 5.33203H10.8593L10.4136 11.8861C10.3107 13.3987 9.05364 14.5732 7.53749 14.5732C5.71145 14.5732 4.3455 12.897 4.71412 11.1085L5.69386 6.35527Z" fill="#84CAFF"/>
<path d="M10.8331 5.33203L15.9995 5.33204V11.7929C15.9995 13.3284 14.7547 14.5732 13.2192 14.5732C11.6162 14.5732 10.3453 13.2213 10.4442 11.6213L10.8331 5.33203Z" fill="#53B1FD"/>
<path d="M26.3061 6.35527C26.1833 5.75949 25.6588 5.33203 25.0505 5.33203H21.1407L21.5864 11.8861C21.6893 13.3987 22.9464 14.5732 24.4625 14.5732C26.2886 14.5732 27.6545 12.897 27.2859 11.1085L26.3061 6.35527Z" fill="#53B1FD"/>
<path d="M21.1669 5.33203L16.0005 5.33204V11.7929C16.0005 13.3284 17.2453 14.5732 18.7808 14.5732C20.3838 14.5732 21.6547 13.2213 21.5558 11.6213L21.1669 5.33203Z" fill="#84CAFF"/>
</svg>
